# xmcd CD database file
#
# Track frame offsets:
#	150
#	13820
#	29208
#	45223
#	68455
#	81426
#	101436
#	121535
#	135412
#	153205
#	168484
#	187334
#	198097
#	218980
#
# Disc length: 3163 seconds
#
# Revision: 0
# Processed by: cddbd v1.5.1PL0 Copyright (c) Steve Scherf et al.
# Submitted via: CDex 1.51
#
DISCID=b50c590e
DTITLE=Strict Flow - Without Further Add
DYEAR=2004
DGENRE=Hip-Hop
TTITLE0=Ur Not Ready
TTITLE1=Move!
TTITLE2=4-1-Too Much
TTITLE3=The Genuine Article
TTITLE4=Watch Out
TTITLE5=De Ja Vu
TTITLE6=As Good As It Gets
TTITLE7=Who Else?
TTITLE8=Russian Roulette
TTITLE9=PA's Finest Part 1
TTITLE10=Don't Stop
TTITLE11=Outflow
TTITLE12=The Authentic
TTITLE13=Step Ahead
EXTD=YEAR: 2004
EXTT0=
EXTT1=
EXTT2=
EXTT3=
EXTT4=
EXTT5=
EXTT6=
EXTT7=
EXTT8=
EXTT9=
EXTT10=
EXTT11=
EXTT12=
EXTT13=
PLAYORDER=
